<svg x="0px" y="0px"
	 width="200px" height="80px" viewBox="0 0 200 80" enable-background="new 0 0 200 80" xml:space="preserve">
<g>
	<path id="path3035" inkscape:connector-curvature="0" fill="#FFD803" d="M82.052,23.841l7.062,11.858l11.404,8.229l20.475-24.558
		l-10.107-7.192l-27.603,5.961L82.052,23.841z"/>
	<path id="path3033" inkscape:connector-curvature="0" fill="#008AD9" d="M83.477,24.489l-0.453-9.33l7.97-8.489l9.719,3.24
		l9.46-8.165l9.654,3.045l-0.064,15.811L83.477,24.489z"/>
	<path id="path3009" inkscape:connector-curvature="0" fill="#383336" d="M169.871,39.425c-2.674-0.135-4.203-3.302-4.017-6.538
		c0.329-5.704,5.095-11.459,5.095-11.459c1.112,1.015,4.461,6.519,4.278,10.73C175.051,36.272,172.546,39.56,169.871,39.425
		L169.871,39.425z M173.058,19.532c1.15-1.339,1.939-2.121,1.762-3.05c-0.178-0.929-3.324-1.574-4.725-0.281
		c-4.142-3.287-3.294,0.563-2.694,1.422c-4.893,3.44-8.203,12.498-5.541,19.565c2.604,6.909,10.458,7.76,14.576,2.905
		C180.081,35.795,179.432,27.892,173.058,19.532 M34.823,62.402l1.349-1.617 M34.823,62.402l1.349-1.617 M34.823,62.402l1.349-1.617
		 M34.823,62.402l1.349-1.617c0.933,0.771,1.913,1.26,3.099,1.26c0.935,0,1.498-0.371,1.498-0.977v-0.031
		c0-0.578-0.356-0.875-2.091-1.32c-2.09-0.533-3.44-1.111-3.44-3.174v-0.027c0-1.885,1.513-3.131,3.633-3.131
		c1.513,0,2.802,0.475,3.854,1.32l-1.187,1.721c-0.919-0.639-1.824-1.023-2.698-1.023c-0.875,0-1.334,0.4-1.334,0.904v0.029
		c0,0.682,0.445,0.904,2.239,1.363c2.105,0.549,3.292,1.305,3.292,3.115v0.029c0,2.061-1.571,3.217-3.811,3.217
		c-1.572,0-3.157-0.549-4.403-1.66 M53.921,58.754v-0.029c0-1.779-1.305-3.262-3.143-3.262c-1.839,0-3.114,1.453-3.114,3.232v0.029
		c0,1.779,1.305,3.262,3.143,3.262C52.646,61.986,53.921,60.531,53.921,58.754z M45.277,58.754v-0.029
		c0-2.951,2.327-5.369,5.53-5.369c3.204,0,5.501,2.389,5.501,5.338v0.029c0,2.951-2.328,5.367-5.53,5.367
		C47.575,64.09,45.277,61.703,45.277,58.754 M58.934,53.533h2.105l4.864,6.393v-6.393h2.253v10.379h-1.942l-5.026-6.598v6.598
		h-2.254V53.533z M71.063,58.754v-0.029c0-2.951,2.299-5.369,5.442-5.369c1.868,0,2.995,0.504,4.077,1.424l-1.438,1.736
		c-0.8-0.668-1.513-1.053-2.712-1.053c-1.661,0-2.981,1.467-2.981,3.232v0.029c0,1.896,1.306,3.291,3.144,3.291
		c0.831,0,1.572-0.209,2.15-0.621v-1.486h-2.297v-1.971h4.507v4.51c-1.067,0.902-2.535,1.645-4.433,1.645
		C73.289,64.092,71.064,61.822,71.063,58.754 M88.919,58.754v-0.029c0-2.951,2.224-5.369,5.412-5.369
		c1.956,0,3.128,0.652,4.092,1.602l-1.453,1.676c-0.801-0.727-1.618-1.172-2.654-1.172c-1.75,0-3.011,1.453-3.011,3.232v0.029
		c0,1.779,1.231,3.262,3.011,3.262c1.186,0,1.912-0.473,2.727-1.215l1.455,1.467c-1.069,1.141-2.254,1.854-4.256,1.854
		c-3.054,0-5.323-2.357-5.323-5.338 M109.101,58.754v-0.029c0-1.779-1.307-3.262-3.144-3.262c-1.839,0-3.114,1.453-3.114,3.232
		v0.029c0,1.779,1.306,3.262,3.144,3.262C107.825,61.986,109.101,60.531,109.101,58.754z M100.455,58.754v-0.029
		c0-2.951,2.328-5.369,5.531-5.369s5.501,2.389,5.501,5.338v0.029c0,2.951-2.327,5.367-5.53,5.367
		C102.755,64.09,100.456,61.703,100.455,58.754 M114.114,53.533h2.105l4.863,6.393v-6.393h2.254v10.379h-1.943l-5.026-6.598v6.598
		h-2.253V53.533L114.114,53.533z M128.913,55.639h-3.16v-2.105h8.601v2.105h-3.158v8.273h-2.282V55.639z M136.995,53.533h7.828
		v2.033h-5.56v2.104h4.893v2.033h-4.893v2.178h5.634v2.031h-7.902V53.533L136.995,53.533z M147.095,62.402l1.349-1.617
		c0.935,0.771,1.912,1.26,3.099,1.26c0.934,0,1.498-0.371,1.498-0.977v-0.031c0-0.578-0.356-0.875-2.092-1.32
		c-2.09-0.533-3.439-1.111-3.439-3.174v-0.027c0-1.885,1.513-3.131,3.633-3.131c1.512,0,2.803,0.475,3.855,1.32l-1.187,1.721
		c-0.919-0.639-1.824-1.023-2.7-1.023c-0.873,0-1.333,0.4-1.333,0.904v0.029c0,0.682,0.443,0.904,2.238,1.363
		c2.105,0.549,3.291,1.305,3.291,3.113v0.031c0,2.061-1.57,3.217-3.811,3.217c-1.57,0-3.157-0.549-4.403-1.66 M160.366,55.639
		h-3.158v-2.105h8.599v2.105h-3.158v8.273h-2.282V55.639z M19.688,5.798c-9.23-0.669-19.432,6.976-19.042,16.877
		c0.038,0.951,0.841,1.822,1.996,1.822c1.428,0,5.609-0.159,5.609-0.159S0,30.843,0,38.458c0,4.018,3.015,8.833,9.308,8.833
		c8.82,0,15.395-7.223,15.382-13.34c0-0.466-0.535-1.123-1.396-0.077c-1.367,1.657-8.698,9.185-15.942,9.185
		c-2.433,0-4.548-1.375-4.548-4.283c0-3.807,6.029-11.212,16.395-14.121c2.539-0.74,2.75-4.283-0.477-4.442
		C15.55,20.058,4.601,21.27,3.808,21.27c-0.793,0-0.865-0.171-0.582-0.898c0.37-0.952,4.389-7.986,16.447-9.309
		C23.745,10.746,23.337,6.062,19.688,5.798 M32.739,17.363c0-2.392-3.552-3.861-4.89-0.474c-2.577,6.521-3.359,26.279,5.265,26.279
		c3.786,0,8.617-8.297,8.617-16.395c0-6.678-2.734-11.042-3.313-11.831c-0.577-0.789-1.367-0.368-1.262,1.105
		c0.106,1.471,0.526,15.09-3.733,20.034c-1.682,1.84-2.922-0.078-3.103-1.893C29.794,28.877,32.739,20.832,32.739,17.363
		 M72.15,38.586c-2.421,0-3.767-3.127-3.767-6.524c0-5.986,4.304-11.433,4.304-11.433c1.184,1.509,4.036,5.769,4.036,10.083
		S74.569,38.586,72.15,38.586z M74.086,18.742c0,0,1.369-1.859,0.545-2.907c-0.925-1.183-3.893-1.551-6.671,1.562
		c-3.659,4.098-6.222,12.747-3.451,20.003c2.649,6.938,10.067,7.522,13.506,2.265C81.081,34.973,80.275,27.153,74.086,18.742
		 M49.752,25.819c0.212-2.697,0.424-5.5,0.424-5.5s6.029-1.533,8.091-1.321c1.795,0.184,2.169,0.952,1.254,2.371
		C57.369,24.711,52.418,25.867,49.752,25.819L49.752,25.819z M62.695,43.705c-2.58-3.579-5.818-10.745-10.773-15.083
		c5.024-0.317,11.318-4.23,11.318-8.409c0-3.094-3.219-5.323-7.397-5.323s-8.786,1.41-10.531,2.467
		c-2.273,1.322-0.582,4.442,1.535,3.596c0,0-0.793,3.701-1.005,5.658c-1.717-0.211-2.062,0.106-1.957,0.477
		c0.106,0.37,0.846,0.688,1.693,1.746c-0.266,2.326-0.733,12.673-0.627,13.573c0.106,0.906,0.652,1.062,1.428,0.105
		c0.688-0.846,2.16-2.891,2.848-10.611c0.793,0.686,2.962,3.591,5.606,6.979c3.878,4.972,5.157,5.329,6.751,5.892
		c0.86,0.303,1.746-0.189,1.115-1.068 M126.953,15.576c0.142,5.375-4.585,13.921-4.888,20.159c-0.222,4.548,0.594,6.387,0.981,6.986
		c0.405,0.627,1.293,0.682,1.529-0.459c0.706-3.407,5.573-12.39,6.197-19.613c0.383-4.427-0.99-7.136-2.572-7.649
		C127.496,14.771,126.935,14.857,126.953,15.576 M144.58,14.89c-6.612,0-11.382,2.344-11.382,7.668c0,3.279,2.432,5.535,6.312,6.17
		c2.256,0.423,4.452,0.588,5.252,0.881c1.448,0.528-2.016,2.195-7.405,5.85c-3.683,2.498-6.372,5.136-7.809,7.938
		c-0.498,0.971,0.176,1.895,1.216,1.18c2.022-1.393,6.451-3.712,10.747-6.076c4.091-2.251,7.942-4.722,7.942-7.799
		c0-2.786-2.091-3.836-3.702-4.02c-2.786-0.316-8.816-0.071-8.816-3.56c0-1.305,1.729-3.016,7.281-3.016
		C148.5,20.107,148.069,14.89,144.58,14.89 M152.905,15.86c2.163,4.153-1.519,15.451-1.519,19.743c0,4.292,0.482,5.806,1.62,7.196
		c0.581,0.713,1.344,0.285,1.414-0.484c0.353-3.783,4.416-14.051,4.68-18.822c0.334-6.077-2.667-8.432-4.425-8.582
		C153.701,14.83,152.412,15.005,152.905,15.86 M154.394,10c-0.109,3.958,6.49,4.596,6.49-0.243c0-4.216-3.526-7.705-4.235-8.285
		c-1.101-0.898-2.659-0.736-2.292,0.716C155.201,5.23,154.433,8.618,154.394,10 M199.676,42.758
		C198.814,37.44,200,30.601,200,24.156c0-4.921-4.09-7.45-6.515-7.45c-3.154,0-5.025,1.421-5.025,1.421
		c0.034-0.936,0.197-2.377,0.167-2.831c-0.034-0.521-0.657-0.521-1.559-0.035c-4.955,3.083-5.672,11.932-5.672,18.064
		c0,6.134,0.977,8.309,1.079,9.139c0.099,0.789,1.068,0.906,1.45,0.213c2.633-5.128,2.94-14.467,3.841-19.666
		c1.249-1.698,6.342-2.009,6.55,2.044c0.212,4.126-0.187,14.557,4.034,18.199C198.919,43.746,199.801,43.52,199.676,42.758
		 M85.143,21.218C85.252,11.33,90.398,8.234,93.2,8.234c3.915,0,5.53,2.988,5.795,4.311c0.264,1.322,1.746,2.379,2.221,0.21
		c0.477-2.168,5.081-8.779,10.739-8.779c5.184,0,6.977,5.344,6.822,9.89c-0.423,12.375-16.366,22.252-18.465,28.489
		C98.444,38.576,85.011,33.117,85.143,21.218L85.143,21.218z M113.807,0.91c-4.653,0-10.158,3.438-13.489,9.149
		c-0.899-2.063-4.102-4.311-7.909-4.311c-3.067,0-11.679,3.834-11.679,16.209c0,15.971,16.159,19.252,19.426,24.217
		c0.225,0.34,0.947,0.598,1.224-0.217c2.606-7.694,22.817-16.385,22.817-32.039C124.196,5.141,118.462,0.911,113.807,0.91"/>
	<g id="flowRoot2997" transform="matrix(0.38653205,0,0,0.38653205,63.571388,40.898043)">
		<path id="path3006" inkscape:connector-curvature="0" fill="#383336" d="M18.327,85.765l9.638-9.833h-3.277L11.773,89.362V75.932
			H9.234v22.491h2.539v-6.043l4.786-4.851l8.643,10.894h3.181L18.327,85.765z"/>
		<path id="path3008" inkscape:connector-curvature="0" fill="#383336" d="M43.607,89.489l9.349-13.557h-2.955l-7.648,11.248
			l-7.582-11.248h-3.084l9.349,13.592v8.898h2.569V89.489z"/>
		<path id="path3010" inkscape:connector-curvature="0" fill="#383336" d="M59.87,75.932v22.491h2.538V75.932H59.87z"/>
		<path id="path3012" inkscape:connector-curvature="0" fill="#383336" d="M80.613,95.305l-8-19.373h-2.828l9.67,22.652h2.251
			l9.671-22.652h-2.731L80.613,95.305z"/>
		<path id="path3014" inkscape:connector-curvature="0" fill="#383336" d="M111.215,77.892c0.599,0,1.177,0.101,1.736,0.303
			c0.556,0.202,1.038,0.495,1.445,0.869c0.404,0.374,0.735,0.824,0.98,1.349c0.245,0.526,0.369,1.117,0.369,1.784
			c0,0.556-0.078,1.096-0.243,1.622c-0.159,0.526-0.427,1.061-0.801,1.607c-0.376,0.546-0.862,1.132-1.463,1.753
			c-0.601,0.616-1.326,1.314-2.183,2.087l-8.163,7.195v1.961h15.712v-2.314h-11.922l6.01-5.336c0.983-0.854,1.829-1.642,2.539-2.36
			c0.705-0.718,1.294-1.415,1.766-2.087c0.47-0.672,0.819-1.354,1.043-2.041c0.225-0.682,0.336-1.445,0.336-2.279
			c0-0.92-0.169-1.774-0.51-2.557c-0.344-0.783-0.826-1.455-1.448-2.026c-0.619-0.566-1.354-1.011-2.201-1.329
			s-1.784-0.485-2.809-0.485c-0.988,0-1.872,0.106-2.65,0.323c-0.783,0.212-1.491,0.526-2.125,0.93
			c-0.629,0.409-1.213,0.91-1.748,1.511c-0.536,0.601-1.061,1.273-1.574,2.026l1.862,1.349c0.902-1.268,1.809-2.223,2.731-2.875
			C108.828,78.221,109.932,77.892,111.215,77.892z"/>
		<path id="path3016" inkscape:connector-curvature="0" fill="#383336" d="M143.791,87.144c0-1.587-0.22-3.077-0.657-4.482
			c-0.44-1.405-1.071-2.633-1.895-3.694c-0.826-1.061-1.822-1.9-2.989-2.506c-1.167-0.611-2.471-0.915-3.903-0.915
			c-1.458,0-2.777,0.308-3.951,0.93c-1.177,0.622-2.18,1.465-3.004,2.521c-0.826,1.061-1.463,2.299-1.913,3.714
			c-0.452,1.41-0.672,2.91-0.672,4.497s0.217,3.077,0.654,4.477c0.44,1.405,1.074,2.638,1.897,3.699
			c0.824,1.056,1.819,1.895,2.986,2.506c1.17,0.606,2.481,0.915,3.936,0.915c1.438,0,2.741-0.308,3.921-0.93
			c1.177-0.622,2.178-1.46,3.004-2.521c0.824-1.061,1.46-2.299,1.913-3.714C143.569,90.226,143.791,88.731,143.791,87.144z
			 M141.159,87.21c0,1.243-0.157,2.425-0.467,3.552c-0.311,1.122-0.76,2.102-1.349,2.951c-0.589,0.844-1.304,1.521-2.153,2.026
			c-0.844,0.5-1.796,0.753-2.842,0.753c-1.051,0-2.003-0.253-2.862-0.753c-0.856-0.505-1.582-1.182-2.183-2.041
			c-0.599-0.854-1.059-1.854-1.382-2.986c-0.321-1.137-0.48-2.324-0.48-3.567c0-1.243,0.159-2.425,0.48-3.552
			c0.323-1.122,0.778-2.107,1.367-2.956c0.589-0.844,1.306-1.521,2.15-2.021c0.849-0.505,1.794-0.758,2.845-0.758
			c1.048,0,1.998,0.258,2.842,0.773c0.846,0.515,1.569,1.203,2.173,2.057c0.596,0.859,1.056,1.849,1.379,2.971
			C140.997,84.784,141.159,85.967,141.159,87.21z"/>
		<path id="path3018" inkscape:connector-curvature="0" fill="#383336" d="M149.921,77.67l0.611,2.051l4.239-1.314v20.015h2.509
			V75.775h-1.865L149.921,77.67z"/>
		<path id="path3020" inkscape:connector-curvature="0" fill="#383336" d="M164.991,78.241h12.37l-10.154,20.181h2.83l10.215-20.596
			v-1.895h-15.26V78.241z"/>
	</g>
</g>
</svg>
