<?xml version="1.0" encoding="utf-8"?>
<!-- Generator: Adobe Illustrator 15.0.2, SVG Export Plug-In . SVG Version: 6.00 Build 0)  -->
<!DOCTYPE svg PUBLIC "-//W3C//DTD SVG 1.1//EN" "http://www.w3.org/Graphics/SVG/1.1/DTD/svg11.dtd">
<svg version="1.1" id="Capa_1" xmlns="http://www.w3.org/2000/svg" xmlns:xlink="http://www.w3.org/1999/xlink" x="0px" y="0px"
	 width="100px" height="100px" viewBox="0 0 100 100" enable-background="new 0 0 100 100" xml:space="preserve">
<g>
	<path fill="#FFFFFF" d="M12.009,44.544c0.241-21.69,11.53-28.477,17.676-28.477c8.585,0,12.131,6.555,12.708,9.453
		c0.582,2.898,3.83,5.219,4.875,0.463S58.41,6.728,70.822,6.728c11.368,0,15.306,11.72,14.966,21.69
		c-0.932,27.146-35.899,48.812-40.502,62.488C41.188,82.621,11.721,70.646,12.009,44.544z M74.882,0
		C64.675,0,52.603,7.541,45.296,20.069c-1.972-4.524-8.997-9.458-17.348-9.458c-6.73,0-25.619,8.413-25.619,35.559
		c0,35.032,35.443,42.228,42.607,53.114c0.493,0.75,2.08,1.316,2.686-0.473c5.717-16.875,50.049-35.938,50.049-70.275
		C97.671,9.281,85.091,0,74.882,0z"/>
</g>
</svg>
